<svg xmlns="http://www.w3.org/2000/svg" width="53" height="40" viewBox="0 0 53 40"><g><g><path fill="#c0301c" d="M15.155 34.174a.921.921 0 0 1-1.328 0L.375 20.666a.93.93 0 0 1 0-1.333L13.827 5.826a.922.922 0 0 1 1.328 0L16.6 7.275a.93.93 0 0 1 0 1.333L5.254 20l11.345 11.39a.93.93 0 0 1 0 1.334zm7.737 5.043c-.145.493-.664.783-1.126.637l-1.79-.492a.94.94 0 0 1-.635-1.16L30.108.783c.145-.493.664-.783 1.126-.638l1.79.494a.94.94 0 0 1 .635 1.159zm16.28-5.043a.921.921 0 0 1-1.327 0l-1.444-1.45a.93.93 0 0 1 0-1.333L47.746 20 36.401 8.608a.93.93 0 0 1 0-1.333l1.444-1.45a.922.922 0 0 1 1.328 0l13.452 13.508a.93.93 0 0 1 0 1.333z"/></g></g></svg>